[hls @ 0000011e3d3e65c0] Opening 'https://tv.kooraiq.com:4433/beIN_sport8/tracks-v1a1/2025/08/16/09/56/41-05000.ts' for reading
[https @ 0000011e3d7f3540] HTTP error 404 Not Found
[hls @ 0000011e3d3e65c0] Failed to open segment 458770 of playlist 0
[hls @ 0000011e3d3e65c0] Segment 458770 of playlist 0 failed too many times, skipping
[hls @ 0000011e3d3e65c0] Opening 'https://tv.kooraiq.com:4433/beIN_sport8/tracks-v1a1/2025/08/16/09/56/46-04320.ts' for reading
[https @ 0000011e3d4ae840] HTTP error 404 Not Found
[hls @ 0000011e3d3e65c0] Failed to open segment 458771 of playlist 0
[hls @ 0000011e3d3e65c0] Segment 458771 of playlist 0 failed too many times, skipping
[hls @ 0000011e3d3e65c0] Opening 'https://tv.kooraiq.com:4433/beIN_sport8/tracks-v1a1/2025/08/16/09/56/50-05000.ts' for reading
[h264 @ 0000011e3d93e2c0] Increasing reorder buffer to 2
Input #0, hls, from 'https://tv.kooraiq.com:4433/beIN_sport8/tracks-v1a1/mono.m3u8':
  Duration: N/A, start: 32798.320300, bitrate: N/A
  Program 0 
    Metadata:
      variant_bitrate : 0
  Stream #0:0: Video: h264 (Main) ([27][0][0][0] / 0x001B), yuv420p(tv, bt709), 1280x720 [SAR 1:1 DAR 16:9], 50 fps, 50 tbr, 90k tbn, start 32798.369644
    Metadata:
      variant_bitrate : 0
  Stream #0:1: Audio: aac (LC) ([15][0][0][0] / 0x000F), 44100 Hz, stereo, fltp, start 32798.320300
    Metadata:
      variant_bitrate : 0
Stream mapping:
  Stream #0:0 -> #0:0 (h264 (native) -> h264 (libx264))
  Stream #0:1 -> #0:1 (aac (native) -> aac (native))
[libx264 @ 0000011e3d3e3f80] using SAR=1/1
[libx264 @ 0000011e3d3e3f80] using cpu capabilities: MMX2 SSE2Fast SSSE3 SSE4.2 AVX
[libx264 @ 0000011e3d3e3f80] profile High, level 3.2, 4:2:0, 8-bit
[libx264 @ 0000011e3d3e3f80] 264 - core 165 r3222 b35605a - H.264/MPEG-4 AVC codec - Copyleft 2003-2025 - http://www.videolan.org/x264.html - options: cabac=1 ref=1 deblock=1:0:0 analyse=0x3:0x113 me=hex subme=2 psy=1 psy_rd=1.00:0.00 mixed_ref=0 me_range=16 chroma_me=1 trellis=0 8x8dct=1 cqm=0 deadzone=21,11 fast_pskip=1 chroma_qp_offset=0 threads=22 lookahead_threads=5 sliced_threads=0 nr=0 decimate=1 interlaced=0 bluray_compat=0 constrained_intra=0 bframes=3 b_pyramid=2 b_adapt=1 b_bias=0 direct=1 weightb=1 open_gop=0 weightp=1 keyint=250 keyint_min=25 scenecut=40 intra_refresh=0 rc_lookahead=10 rc=crf mbtree=1 crf=23.0 qcomp=0.60 qpmin=0 qpmax=69 qpstep=4 vbv_maxrate=3000 vbv_bufsize=6000 crf_max=0.0 nal_hrd=none filler=0 ip_ratio=1.40 aq=1:1.00
Output #0, hls, to 'live\channel_32\stream.m3u8':
  Metadata:
    encoder         : Lavf62.1.103
  Stream #0:0: Video: h264, yuv420p(tv, bt709, progressive), 1280x720 [SAR 1:1 DAR 16:9], q=2-31, 50 fps, 90k tbn
    Metadata:
      encoder         : Lavc62.8.100 libx264
      variant_bitrate : 0
    Side data:
      cpb: bitrate max/min/avg: 3000000/0/0 buffer size: 6000000 vbv_delay: N/A
  Stream #0:1: Audio: aac (LC), 44100 Hz, stereo, fltp, 128 kb/s
    Metadata:
      encoder         : Lavc62.8.100 aac
      variant_bitrate : 0
frame=    0 fps=0.0 q=0.0 size=N/A time=N/A bitrate=N/A speed=N/A elapsed=0:00:00.50    frame=   38 fps= 37 q=31.0 size=N/A time=00:00:00.74 bitrate=N/A speed=0.726x elapsed=0:00:01.01    frame=  107 fps= 69 q=31.0 size=N/A time=00:00:02.10 bitrate=N/A speed=1.36x elapsed=0:00:01.54    frame=  187 fps= 90 q=31.0 size=N/A time=00:00:03.72 bitrate=N/A speed=1.78x elapsed=0:00:02.08    frame=  196 fps= 75 q=31.0 size=N/A time=00:00:03.88 bitrate=N/A speed=1.49x elapsed=0:00:02.59    frame=  196 fps= 63 q=31.0 size=N/A time=00:00:03.88 bitrate=N/A speed=1.25x elapsed=0:00:03.11    frame=  196 fps= 54 q=31.0 size=N/A time=00:00:03.88 bitrate=N/A speed=1.07x elapsed=0:00:03.62    [https @ 0000011e3d830340] Opening 'https://tv.kooraiq.com:4433/beIN_sport8/tracks-v1a1/2025/08/16/09/56/55-05000.ts' for reading
[hls @ 0000011e3d3e65c0] Opening 'https://tv.kooraiq.com:4433/beIN_sport8/tracks-v1a1/2025/08/16/09/57/00-05000.ts' for reading
frame=  209 fps= 50 q=31.0 size=N/A time=00:00:04.14 bitrate=N/A speed=0.997x elapsed=0:00:04.15    [hls @ 0000011e3d8a0480] Opening 'live\channel_32\stream0.ts' for writing
[hls @ 0000011e3d8a0480] Opening 'live\channel_32\stream.m3u8.tmp' for writing
frame=  287 fps= 62 q=31.0 size=N/A time=00:00:05.70 bitrate=N/A speed=1.22x elapsed=0:00:04.66    frame=  354 fps= 68 q=31.0 size=N/A time=00:00:07.04 bitrate=N/A speed=1.36x elapsed=0:00:05.18    frame=  417 fps= 73 q=31.0 size=N/A time=00:00:08.30 bitrate=N/A speed=1.46x elapsed=0:00:05.69    [hls @ 0000011e3d8a0480] Opening 'live\channel_32\stream1.ts' for writing
[hls @ 0000011e3d8a0480] Opening 'live\channel_32\stream.m3u8.tmp' for writing
frame=  474 fps= 76 q=31.0 size=N/A time=00:00:09.44 bitrate=N/A speed=1.51x elapsed=0:00:06.23    frame=  544 fps= 81 q=31.0 size=N/A time=00:00:10.84 bitrate=N/A speed= 1.6x elapsed=0:00:06.75    frame=  605 fps= 83 q=31.0 size=N/A time=00:00:12.06 bitrate=N/A speed=1.66x elapsed=0:00:07.27    frame=  648 fps= 83 q=31.0 size=N/A time=00:00:12.92 bitrate=N/A speed=1.66x elapsed=0:00:07.79    frame=  696 fps= 83 q=31.0 size=N/A time=00:00:13.88 bitrate=N/A speed=1.66x elapsed=0:00:08.35    frame=  696 fps= 79 q=31.0 size=N/A time=00:00:13.88 bitrate=N/A speed=1.57x elapsed=0:00:08.86    [https @ 0000011e5136f180] Opening 'https://tv.kooraiq.com:4433/beIN_sport8/tracks-v1a1/mono.m3u8' for reading
[https @ 0000011e407f9740] Opening 'https://tv.kooraiq.com:4433/beIN_sport8/tracks-v1a1/2025/08/16/09/57/05-05000.ts' for reading
frame=  696 fps= 74 q=31.0 size=N/A time=00:00:13.88 bitrate=N/A speed=1.48x elapsed=0:00:09.38    [https @ 0000011e3d830340] Opening 'https://tv.kooraiq.com:4433/beIN_sport8/tracks-v1a1/2025/08/16/09/57/10-05000.ts' for reading
frame=  696 fps= 70 q=31.0 size=N/A time=00:00:13.88 bitrate=N/A speed= 1.4x elapsed=0:00:09.90    [hls @ 0000011e3d8a0480] Opening 'live\channel_32\stream2.ts' for writing
[hls @ 0000011e3d8a0480] Opening 'live\channel_32\stream.m3u8.tmp' for writing
frame=  750 fps= 72 q=31.0 size=N/A time=00:00:14.96 bitrate=N/A speed=1.44x elapsed=0:00:10.42    frame=  834 fps= 76 q=31.0 size=N/A time=00:00:16.64 bitrate=N/A speed=1.52x elapsed=0:00:10.92    frame=  878 fps= 77 q=31.0 size=N/A time=00:00:17.52 bitrate=N/A speed=1.53x elapsed=0:00:11.44    [hls @ 0000011e3d8a0480] Opening 'live\channel_32\stream3.ts' for writing
[hls @ 0000011e3d8a0480] Opening 'live\channel_32\stream.m3u8.tmp' for writing
frame=  921 fps= 77 q=31.0 size=N/A time=00:00:18.38 bitrate=N/A speed=1.54x elapsed=0:00:11.95    frame=  982 fps= 79 q=31.0 size=N/A time=00:00:19.60 bitrate=N/A speed=1.57x elapsed=0:00:12.47    frame= 1066 fps= 82 q=31.0 size=N/A time=00:00:21.28 bitrate=N/A speed=1.64x elapsed=0:00:13.00    frame= 1111 fps= 82 q=31.0 size=N/A time=00:00:22.18 bitrate=N/A speed=1.64x elapsed=0:00:13.52    [hls @ 0000011e3d8a0480] Opening 'live\channel_32\stream4.ts' for writing
[hls @ 0000011e3d8a0480] Opening 'live\channel_32\stream.m3u8.tmp' for writing
frame= 1151 fps= 82 q=31.0 size=N/A time=00:00:22.98 bitrate=N/A speed=1.64x elapsed=0:00:14.04    [https @ 0000011e5136f180] Opening 'https://tv.kooraiq.com:4433/beIN_sport8/tracks-v1a1/mono.m3u8' for reading
frame= 1196 fps= 82 q=31.0 size=N/A time=00:00:23.88 bitrate=N/A speed=1.64x elapsed=0:00:14.55    frame= 1196 fps= 79 q=31.0 size=N/A time=00:00:23.88 bitrate=N/A speed=1.58x elapsed=0:00:15.06    frame= 1196 fps= 77 q=31.0 size=N/A time=00:00:23.88 bitrate=N/A speed=1.53x elapsed=0:00:15.58    frame= 1196 fps= 74 q=31.0 size=N/A time=00:00:23.88 bitrate=N/A speed=1.48x elapsed=0:00:16.09    frame= 1196 fps= 72 q=31.0 size=N/A time=00:00:23.88 bitrate=N/A speed=1.44x elapsed=0:00:16.61    [https @ 0000011e5136f180] Opening 'https://tv.kooraiq.com:4433/beIN_sport8/tracks-v1a1/mono.m3u8' for reading
[https @ 0000011e3d830340] Opening 'https://tv.kooraiq.com:4433/beIN_sport8/tracks-v1a1/2025/08/16/09/57/15-05000.ts' for reading
frame= 1199 fps= 70 q=31.0 size=N/A time=00:00:24.00 bitrate=N/A speed= 1.4x elapsed=0:00:17.13    frame= 1255 fps= 71 q=31.0 size=N/A time=00:00:25.06 bitrate=N/A speed=1.42x elapsed=0:00:17.64    frame= 1303 fps= 72 q=31.0 size=N/A time=00:00:26.02 bitrate=N/A speed=1.43x elapsed=0:00:18.17    frame= 1343 fps= 72 q=31.0 size=N/A time=00:00:26.82 bitrate=N/A speed=1.44x elapsed=0:00:18.67    frame= 1387 fps= 72 q=34.0 size=N/A time=00:00:27.70 bitrate=N/A speed=1.44x elapsed=0:00:19.19    frame= 1421 fps= 72 q=35.0 size=N/A time=00:00:28.38 bitrate=N/A speed=1.44x elapsed=0:00:19.71    [hls @ 0000011e3d8a0480] Opening 'live\channel_32\stream5.ts' for writing
[hls @ 0000011e3d8a0480] Opening 'live\channel_32\stream.m3u8.tmp' for writing
frame= 1446 fps= 72 q=33.0 size=N/A time=00:00:28.88 bitrate=N/A speed=1.43x elapsed=0:00:20.22    frame= 1446 fps= 70 q=33.0 size=N/A time=00:00:28.88 bitrate=N/A speed=1.39x elapsed=0:00:20.73    frame= 1446 fps= 68 q=33.0 size=N/A time=00:00:28.88 bitrate=N/A speed=1.36x elapsed=0:00:21.25    frame= 1446 fps= 66 q=33.0 size=N/A time=00:00:28.88 bitrate=N/A speed=1.33x elapsed=0:00:21.76    [https @ 0000011e5136f180] Opening 'https://tv.kooraiq.com:4433/beIN_sport8/tracks-v1a1/mono.m3u8' for reading
frame= 1446 fps= 65 q=33.0 size=N/A time=00:00:28.88 bitrate=N/A speed= 1.3x elapsed=0:00:22.28    frame= 1446 fps= 63 q=33.0 size=N/A time=00:00:28.88 bitrate=N/A speed=1.27x elapsed=0:00:22.80    frame= 1446 fps= 62 q=33.0 size=N/A time=00:00:28.88 bitrate=N/A speed=1.24x elapsed=0:00:23.31    frame= 1446 fps= 61 q=33.0 size=N/A time=00:00:28.88 bitrate=N/A speed=1.21x elapsed=0:00:23.83    frame= 1446 fps= 59 q=33.0 size=N/A time=00:00:28.88 bitrate=N/A speed=1.19x elapsed=0:00:24.35    [https @ 0000011e5136f180] Opening 'https://tv.kooraiq.com:4433/beIN_sport8/tracks-v1a1/mono.m3u8' for reading
frame= 1446 fps= 58 q=33.0 size=N/A time=00:00:28.88 bitrate=N/A speed=1.16x elapsed=0:00:24.86    [https @ 0000011e3d830340] Opening 'https://tv.kooraiq.com:4433/beIN_sport8/tracks-v1a1/2025/08/16/09/57/20-05000.ts' for reading
frame= 1453 fps= 57 q=33.0 size=N/A time=00:00:29.02 bitrate=N/A speed=1.14x elapsed=0:00:25.38    frame= 1489 fps= 58 q=33.0 size=N/A time=00:00:29.74 bitrate=N/A speed=1.15x elapsed=0:00:25.89    frame= 1520 fps= 58 q=35.0 size=N/A time=00:00:30.36 bitrate=N/A speed=1.15x elapsed=0:00:26.41    [hls @ 0000011e3d8a0480] Opening 'live\channel_32\stream6.ts' for writing
[hls @ 0000011e3d8a0480] Opening 'live\channel_32\stream.m3u8.tmp' for writing
frame= 1567 fps= 58 q=31.0 size=N/A time=00:00:31.30 bitrate=N/A speed=1.16x elapsed=0:00:26.92    frame= 1631 fps= 59 q=31.0 size=N/A time=00:00:32.58 bitrate=N/A speed=1.19x elapsed=0:00:27.44    frame= 1696 fps= 61 q=31.0 size=N/A time=00:00:33.88 bitrate=N/A speed=1.21x elapsed=0:00:27.95    frame= 1696 fps= 60 q=31.0 size=N/A time=00:00:33.88 bitrate=N/A speed=1.19x elapsed=0:00:28.47    frame= 1696 fps= 58 q=31.0 size=N/A time=00:00:33.88 bitrate=N/A speed=1.17x elapsed=0:00:28.99    frame= 1696 fps= 57 q=31.0 size=N/A time=00:00:33.88 bitrate=N/A speed=1.15x elapsed=0:00:29.50    [https @ 0000011e5136f180] Opening 'https://tv.kooraiq.com:4433/beIN_sport8/tracks-v1a1/mono.m3u8' for reading
[https @ 0000011e3d830340] Opening 'https://tv.kooraiq.com:4433/beIN_sport8/tracks-v1a1/2025/08/16/09/57/25-05000.ts' for reading
[https @ 0000011e407f9740] Opening 'https://tv.kooraiq.com:4433/beIN_sport8/tracks-v1a1/2025/08/16/09/57/30-05000.ts' for reading
frame= 1696 fps= 56 q=31.0 size=N/A time=00:00:33.88 bitrate=N/A speed=1.13x elapsed=0:00:30.01    frame= 1751 fps= 57 q=31.0 size=N/A time=00:00:34.98 bitrate=N/A speed=1.15x elapsed=0:00:30.53    [hls @ 0000011e3d8a0480] Opening 'live\channel_32\stream7.ts' for writing
[hls @ 0000011e3d8a0480] Opening 'live\channel_32\stream.m3u8.tmp' for writing
frame= 1801 fps= 58 q=34.0 size=N/A time=00:00:35.98 bitrate=N/A speed=1.16x elapsed=0:00:31.05    frame= 1857 fps= 59 q=32.0 size=N/A time=00:00:37.10 bitrate=N/A speed=1.18x elapsed=0:00:31.56    frame= 1902 fps= 59 q=31.0 size=N/A time=00:00:38.00 bitrate=N/A speed=1.18x elapsed=0:00:32.08    [hls @ 0000011e3d8a0480] Opening 'live\channel_32\stream8.ts' for writing
[hls @ 0000011e3d8a0480] Opening 'live\channel_32\stream.m3u8.tmp' for writing
frame= 1954 fps= 60 q=31.0 size=N/A time=00:00:39.04 bitrate=N/A speed= 1.2x elapsed=0:00:32.59    frame= 1990 fps= 60 q=31.0 size=N/A time=00:00:39.76 bitrate=N/A speed= 1.2x elapsed=0:00:33.11    frame= 2030 fps= 60 q=31.0 size=N/A time=00:00:40.56 bitrate=N/A speed=1.21x elapsed=0:00:33.63    frame= 2066 fps= 61 q=31.0 size=N/A time=00:00:41.28 bitrate=N/A speed=1.21x elapsed=0:00:34.14    frame= 2096 fps= 60 q=31.0 size=N/A time=00:00:41.88 bitrate=N/A speed=1.21x elapsed=0:00:34.66    frame= 2132 fps= 61 q=31.0 size=N/A time=00:00:42.60 bitrate=N/A speed=1.21x elapsed=0:00:35.17    [hls @ 0000011e3d8a0480] Opening 'live\channel_32\stream9.ts' for writing
[hls @ 0000011e3d8a0480] Opening 'live\channel_32\stream.m3u8.tmp' for writing
[https @ 0000011e5136f180] Opening 'https://tv.kooraiq.com:4433/beIN_sport8/tracks-v1a1/mono.m3u8' for reading
[https @ 0000011e407f9740] Opening 'https://tv.kooraiq.com:4433/beIN_sport8/tracks-v1a1/2025/08/16/09/57/35-05000.ts' for reading
frame= 2189 fps= 61 q=31.0 size=N/A time=00:00:43.74 bitrate=N/A speed=1.23x elapsed=0:00:35.69    frame= 2255 fps= 62 q=31.0 size=N/A time=00:00:45.06 bitrate=N/A speed=1.24x elapsed=0:00:36.20    frame= 2308 fps= 63 q=31.0 size=N/A time=00:00:46.12 bitrate=N/A speed=1.26x elapsed=0:00:36.72    frame= 2356 fps= 63 q=31.0 size=N/A time=00:00:47.08 bitrate=N/A speed=1.26x elapsed=0:00:37.23    [hls @ 0000011e3d8a0480] Opening 'live\channel_32\stream10.ts' for writing
[hls @ 0000011e3d8a0480] Opening 'live\channel_32\stream.m3u8.tmp' for writing
frame= 2409 fps= 64 q=31.0 size=N/A time=00:00:48.14 bitrate=N/A speed=1.28x elapsed=0:00:37.75    frame= 2446 fps= 64 q=31.0 size=N/A time=00:00:48.88 bitrate=N/A speed=1.28x elapsed=0:00:38.26    frame= 2446 fps= 63 q=31.0 size=N/A time=00:00:48.88 bitrate=N/A speed=1.26x elapsed=0:00:38.78    frame= 2446 fps= 62 q=31.0 size=N/A time=00:00:48.88 bitrate=N/A speed=1.24x elapsed=0:00:39.30    frame= 2446 fps= 61 q=31.0 size=N/A time=00:00:48.88 bitrate=N/A speed=1.23x elapsed=0:00:39.81    frame= 2446 fps= 61 q=31.0 size=N/A time=00:00:48.88 bitrate=N/A speed=1.21x elapsed=0:00:40.33    [https @ 0000011e5136f180] Opening 'https://tv.kooraiq.com:4433/beIN_sport8/tracks-v1a1/mono.m3u8' for reading
[https @ 0000011e407f9740] Opening 'https://tv.kooraiq.com:4433/beIN_sport8/tracks-v1a1/2025/08/16/09/57/40-05000.ts' for reading
frame= 2446 fps= 60 q=31.0 size=N/A time=00:00:48.88 bitrate=N/A speed= 1.2x elapsed=0:00:40.84    frame= 2446 fps= 59 q=31.0 size=N/A time=00:00:48.88 bitrate=N/A speed=1.18x elapsed=0:00:41.36    frame= 2454 fps= 59 q=31.0 size=N/A time=00:00:49.04 bitrate=N/A speed=1.17x elapsed=0:00:41.88    frame= 2471 fps= 58 q=31.0 size=N/A time=00:00:49.38 bitrate=N/A speed=1.16x elapsed=0:00:42.40    frame= 2497 fps= 58 q=31.0 size=N/A time=00:00:49.90 bitrate=N/A speed=1.16x elapsed=0:00:42.91    frame= 2528 fps= 58 q=31.0 size=N/A time=00:00:50.54 bitrate=N/A speed=1.16x elapsed=0:00:43.44    [hls @ 0000011e3d8a0480] Opening 'live\channel_32\stream11.ts' for writing
[hls @ 0000011e3d8a0480] Opening 'live\channel_32\stream.m3u8.tmp' for writing
frame= 2561 fps= 58 q=31.0 size=N/A time=00:00:51.26 bitrate=N/A speed=1.17x elapsed=0:00:43.95    frame= 2601 fps= 58 q=31.0 size=N/A time=00:00:51.98 bitrate=N/A speed=1.17x elapsed=0:00:44.48    frame= 2641 fps= 59 q=31.0 size=N/A time=00:00:52.78 bitrate=N/A speed=1.17x elapsed=0:00:44.98    frame= 2678 fps= 59 q=31.0 size=N/A time=00:00:53.54 bitrate=N/A speed=1.18x elapsed=0:00:45.51    [https @ 0000011e5136f180] Opening 'https://tv.kooraiq.com:4433/beIN_sport8/tracks-v1a1/mono.m3u8' for reading
[https @ 0000011e407f9740] Opening 'https://tv.kooraiq.com:4433/beIN_sport8/tracks-v1a1/2025/08/16/09/57/45-05000.ts' for reading
frame= 2696 fps= 59 q=31.0 size=N/A time=00:00:53.88 bitrate=N/A speed=1.17x elapsed=0:00:46.02    frame= 2701 fps= 58 q=31.0 size=N/A time=00:00:53.98 bitrate=N/A speed=1.16x elapsed=0:00:46.53    frame= 2738 fps= 58 q=31.0 size=N/A time=00:00:54.72 bitrate=N/A speed=1.16x elapsed=0:00:47.05    frame= 2754 fps= 58 q=31.0 size=N/A time=00:00:55.04 bitrate=N/A speed=1.16x elapsed=0:00:47.57    [hls @ 0000011e3d8a0480] Opening 'live\channel_32\stream12.ts' for writing
[hls @ 0000011e3d8a0480] Opening 'live\channel_32\stream.m3u8.tmp' for writing
frame= 2789 fps= 58 q=31.0 size=N/A time=00:00:55.74 bitrate=N/A speed=1.16x elapsed=0:00:48.08    frame= 2818 fps= 58 q=31.0 size=N/A time=00:00:56.32 bitrate=N/A speed=1.16x elapsed=0:00:48.61    [hls @ 0000011e3d8a0480] Opening 'live\channel_32\stream13.ts' for writing
[hls @ 0000011e3d8a0480] Opening 'live\channel_32\stream.m3u8.tmp' for writing
frame= 2853 fps= 58 q=31.0 size=N/A time=00:00:57.02 bitrate=N/A speed=1.16x elapsed=0:00:49.13    frame= 2893 fps= 58 q=31.0 size=N/A time=00:00:57.82 bitrate=N/A speed=1.16x elapsed=0:00:49.65    frame= 2925 fps= 58 q=31.0 size=N/A time=00:00:58.46 bitrate=N/A speed=1.16x elapsed=0:00:50.18    frame= 2946 fps= 58 q=31.0 size=N/A time=00:00:58.88 bitrate=N/A speed=1.16x elapsed=0:00:50.69    [https @ 0000011e5136f180] Opening 'https://tv.kooraiq.com:4433/beIN_sport8/tracks-v1a1/mono.m3u8' for reading
[https @ 0000011e407f9740] Opening 'https://tv.kooraiq.com:4433/beIN_sport8/tracks-v1a1/2025/08/16/09/57/50-05000.ts' for reading
frame= 2948 fps= 58 q=31.0 size=N/A time=00:00:58.92 bitrate=N/A speed=1.15x elapsed=0:00:51.22    frame= 2989 fps= 58 q=31.0 size=N/A time=00:00:59.74 bitrate=N/A speed=1.15x elapsed=0:00:51.79    frame= 3029 fps= 58 q=31.0 size=N/A time=00:01:00.54 bitrate=N/A speed=1.16x elapsed=0:00:52.30    frame= 3053 fps= 58 q=31.0 size=N/A time=00:01:01.02 bitrate=N/A speed=1.16x elapsed=0:00:52.81    frame= 3091 fps= 58 q=31.0 size=N/A time=00:01:01.78 bitrate=N/A speed=1.16x elapsed=0:00:53.34    [hls @ 0000011e3d8a0480] Opening 'live\channel_32\stream14.ts' for writing
[hls @ 0000011e3d8a0480] Opening 'live\channel_32\stream.m3u8.tmp' for writing
frame= 3127 fps= 58 q=31.0 size=N/A time=00:01:02.50 bitrate=N/A speed=1.16x elapsed=0:00:53.84    frame= 3155 fps= 58 q=31.0 size=N/A time=00:01:03.14 bitrate=N/A speed=1.16x elapsed=0:00:54.36    frame= 3187 fps= 58 q=31.0 size=N/A time=00:01:03.70 bitrate=N/A speed=1.16x elapsed=0:00:54.94    frame= 3196 fps= 58 q=31.0 size=N/A time=00:01:03.88 bitrate=N/A speed=1.15x elapsed=0:00:55.45    frame= 3196 fps= 57 q=31.0 size=N/A time=00:01:03.88 bitrate=N/A speed=1.14x elapsed=0:00:55.97    [https @ 0000011e5136f180] Opening 'https://tv.kooraiq.com:4433/beIN_sport8/tracks-v1a1/mono.m3u8' for reading
frame= 3196 fps= 57 q=31.0 size=N/A time=00:01:03.88 bitrate=N/A speed=1.13x elapsed=0:00:56.48    [https @ 0000011e407f9740] Opening 'https://tv.kooraiq.com:4433/beIN_sport8/tracks-v1a1/2025/08/16/09/57/55-05000.ts' for reading
frame= 3196 fps= 56 q=31.0 size=N/A time=00:01:03.88 bitrate=N/A speed=1.12x elapsed=0:00:57.00    frame= 3196 fps= 56 q=31.0 size=N/A time=00:01:03.88 bitrate=N/A speed=1.11x elapsed=0:00:57.51    [https @ 0000011e3d830340] Opening 'https://tv.kooraiq.com:4433/beIN_sport8/tracks-v1a1/2025/08/16/09/58/00-05000.ts' for reading
frame= 3196 fps= 55 q=31.0 size=N/A time=00:01:03.88 bitrate=N/A speed= 1.1x elapsed=0:00:58.04    [hls @ 0000011e3d8a0480] Opening 'live\channel_32\stream15.ts' for writing
[hls @ 0000011e3d8a0480] Opening 'live\channel_32\stream.m3u8.tmp' for writing
frame= 3213 fps= 55 q=31.0 size=N/A time=00:01:04.22 bitrate=N/A speed= 1.1x elapsed=0:00:58.56    frame= 3247 fps= 55 q=31.0 size=N/A time=00:01:04.92 bitrate=N/A speed= 1.1x elapsed=0:00:59.06    frame= 3269 fps= 55 q=31.0 size=N/A time=00:01:05.34 bitrate=N/A speed= 1.1x elapsed=0:00:59.58    frame= 3301 fps= 55 q=31.0 size=N/A time=00:01:05.98 bitrate=N/A speed= 1.1x elapsed=0:01:00.10    frame= 3331 fps= 55 q=31.0 size=N/A time=00:01:06.58 bitrate=N/A speed= 1.1x elapsed=0:01:00.61    frame= 3365 fps= 55 q=31.0 size=N/A time=00:01:07.26 bitrate=N/A speed= 1.1x elapsed=0:01:01.13    frame= 3393 fps= 55 q=31.0 size=N/A time=00:01:07.82 bitrate=N/A speed= 1.1x elapsed=0:01:01.64    frame= 3421 fps= 55 q=31.0 size=N/A time=00:01:08.38 bitrate=N/A speed= 1.1x elapsed=0:01:02.16    [https @ 0000011e5136f180] Opening 'https://tv.kooraiq.com:4433/beIN_sport8/tracks-v1a1/mono.m3u8' for reading
[https @ 0000011e407f9740] Opening 'https://tv.kooraiq.com:4433/beIN_sport8/tracks-v1a1/2025/08/16/09/58/05-05000.ts' for reading
frame= 3446 fps= 55 q=31.0 size=N/A time=00:01:08.88 bitrate=N/A speed= 1.1x elapsed=0:01:02.67    [hls @ 0000011e3d8a0480] Opening 'live\channel_32\stream16.ts' for writing
[hls @ 0000011e3d8a0480] Opening 'live\channel_32\stream.m3u8.tmp' for writing
frame= 3474 fps= 55 q=33.0 size=N/A time=00:01:09.46 bitrate=N/A speed= 1.1x elapsed=0:01:03.19    frame= 3511 fps= 55 q=33.0 size=N/A time=00:01:10.18 bitrate=N/A speed= 1.1x elapsed=0:01:03.70    frame= 3551 fps= 55 q=31.0 size=N/A time=00:01:10.98 bitrate=N/A speed=1.11x elapsed=0:01:04.22    frame= 3576 fps= 55 q=31.0 size=N/A time=00:01:11.48 bitrate=N/A speed= 1.1x elapsed=0:01:04.74    frame= 3608 fps= 55 q=31.0 size=N/A time=00:01:12.12 bitrate=N/A speed=1.11x elapsed=0:01:05.25    frame= 3644 fps= 55 q=31.0 size=N/A time=00:01:12.84 bitrate=N/A speed=1.11x elapsed=0:01:05.77    frame= 3676 fps= 55 q=31.0 size=N/A time=00:01:13.48 bitrate=N/A speed=1.11x elapsed=0:01:06.28    [https @ 0000011e3d830340] Opening 'https://tv.kooraiq.com:4433/beIN_sport8/tracks-v1a1/2025/08/16/09/58/10-05000.ts' for reading
